<svg id="Layer_1" enable-background="new 0 0 512 512" height="512" viewBox="0 0 512 512" width="512" xmlns="http://www.w3.org/2000/svg"><g><g><path d="m428 460h-344c-17.673 0-32-14.327-32-32v-376c0-17.673 14.327-32 32-32h344c17.673 0 32 14.327 32 32v376c0 17.673-14.327 32-32 32z" fill="#be5000"/></g><g><path d="m340 444h-256c-8.837 0-16-7.163-16-16v-376c0-8.837 7.163-16 16-16h256c8.837 0 16 7.163 16 16v376c0 8.837-7.163 16-16 16z" fill="#dc6e1e"/></g><g><path d="m84 52h80v376h-80z" fill="#be5000"/></g><g><path d="m108 492h-16c-4.418 0-8-3.582-8-8v-24h32v24c0 4.418-3.582 8-8 8z" fill="#be5000"/></g><g><path d="m332 492h-16c-4.418 0-8-3.582-8-8v-24h32v24c0 4.418-3.582 8-8 8z" fill="#be5000"/></g><g><path d="m420 492h-16c-4.418 0-8-3.582-8-8v-24h32v24c0 4.418-3.582 8-8 8z" fill="#be5000"/></g><g><path d="m100 492h-8c-4.418 0-8-3.582-8-8v-8h16z" fill="#dc6e1e"/></g><g><path d="m324 492h-8c-4.418 0-8-3.582-8-8v-8h16z" fill="#dc6e1e"/></g><g><path d="m412 492h-8c-4.418 0-8-3.582-8-8v-8h16z" fill="#dc6e1e"/></g><g><path d="m340 20h-256c-17.645 0-32 14.355-32 32v376c0 17.645 14.355 32 32 32h256c17.645 0 32-14.355 32-32v-376c0-17.645-14.355-32-32-32zm0 40 .005 88c0 4.418-3.582 8-8 8h-240.005c-4.418 0-8-3.582-8-8v-88c0-4.418 3.582-8 8-8h240c4.419 0 8 3.581 8 8zm-248 128h240.008c4.418 0 8 3.581 8 8l.005 88c0 4.418-3.582 8-8 8h-240.013c-4.418 0-8-3.582-8-8v-88c0-4.418 3.582-8 8-8zm248 240h-248c-4.418 0-8-3.582-8-8v-88c0-4.418 3.582-8 8-8h240.015c4.418 0 8 3.581 8 8l.005 95.999c.001 0-.006.001-.02.001z" fill="#f0be8c"/></g><g><g><path d="m153.333 100h-53.333c-8.837 0-16 7.163-16 16v32c0 4.418 3.582 8 8 8h69.333c4.418 0 8-3.582 8-8v-32c0-8.837-7.163-16-16-16z" fill="#9bd2f0"/></g><g><path d="m153.333 100h-10.667c-8.837 0-16 7.163-16 16v32c0 4.418 3.582 8 8 8h26.667c4.418 0 8-3.582 8-8v-32c0-8.837-7.163-16-16-16z" fill="#50c3eb"/></g><g><g><path d="m84 116v32c0 4.418 3.582 8 8 8h69.333c4.418 0 8-3.582 8-8v-32z" fill="#f04b37"/></g><g><path d="m126.667 116v32c0 4.418 3.582 8 8 8h26.667c4.418 0 8-3.582 8-8v-32z" fill="#d7322d"/></g></g><g><path d="m152 100h-50.667c-2.209 0-4-1.791-4-4v-10.667c0-2.209 1.791-4 4-4h50.667c2.209 0 4 1.791 4 4v10.667c0 2.209-1.791 4-4 4z" fill="#91b945"/></g><g><path d="m152 100h-21.333c-2.209 0-4-1.791-4-4v-10.667c0-2.209 1.791-4 4-4h21.333c2.209 0 4 1.791 4 4v10.667c0 2.209-1.791 4-4 4z" fill="#69a041"/></g><g><path d="m96 145.333c-2.209 0-4-1.791-4-4v-25.333h8v25.333c0 2.209-1.791 4-4 4z" fill="#ff6955"/></g></g><g><g><path d="m238.667 100h-53.333c-8.837 0-16 7.163-16 16v32c0 4.418 3.582 8 8 8h69.333c4.418 0 8-3.582 8-8v-32c0-8.837-7.164-16-16-16z" fill="#9bd2f0"/></g><g><path d="m238.667 100h-10.667c-8.837 0-16 7.163-16 16v32c0 4.418 3.582 8 8 8h26.667c4.418 0 8-3.582 8-8v-32c0-8.837-7.164-16-16-16z" fill="#50c3eb"/></g><g><g><path d="m169.333 116v32c0 4.418 3.582 8 8 8h69.333c4.418 0 8-3.582 8-8v-32z" fill="#55525b"/></g><g><path d="m212 116v32c0 4.418 3.582 8 8 8h26.667c4.418 0 8-3.582 8-8v-32z" fill="#353744"/></g></g><g><path d="m237.333 100h-50.667c-2.209 0-4-1.791-4-4v-10.667c0-2.209 1.791-4 4-4h50.667c2.209 0 4 1.791 4 4v10.667c0 2.209-1.791 4-4 4z" fill="#faa037"/></g><g><path d="m237.333 100h-21.333c-2.209 0-4-1.791-4-4v-10.667c0-2.209 1.791-4 4-4h21.333c2.209 0 4 1.791 4 4v10.667c0 2.209-1.791 4-4 4z" fill="#f57828"/></g><g><path d="m181.333 145.333c-2.209 0-4-1.791-4-4v-25.333h8v25.333c0 2.209-1.791 4-4 4z" fill="#737079"/></g></g><g><g><path d="m324 100h-53.333c-8.837 0-16 7.163-16 16v32c0 4.418 3.582 8 8 8h69.333c4.418 0 8-3.582 8-8v-32c0-8.837-7.163-16-16-16z" fill="#9bd2f0"/></g><g><path d="m324 100h-10.667c-8.837 0-16 7.163-16 16v32c0 4.418 3.582 8 8 8h26.667c4.418 0 8-3.582 8-8v-32c0-8.837-7.163-16-16-16z" fill="#50c3eb"/></g><g><g><path d="m254.667 116v32c0 4.418 3.582 8 8 8h69.333c4.418 0 8-3.582 8-8v-32z" fill="#91b945"/></g><g><path d="m297.333 116v32c0 4.418 3.582 8 8 8h26.667c4.418 0 8-3.582 8-8v-32z" fill="#69a041"/></g></g><g><path d="m322.667 100h-50.667c-2.209 0-4-1.791-4-4v-10.667c0-2.209 1.791-4 4-4h50.667c2.209 0 4 1.791 4 4v10.667c0 2.209-1.791 4-4 4z" fill="#f04b37"/></g><g><path d="m322.667 100h-21.333c-2.209 0-4-1.791-4-4v-10.667c0-2.209 1.791-4 4-4h21.333c2.209 0 4 1.791 4 4v10.667c0 2.209-1.791 4-4 4z" fill="#d7322d"/></g><g><path d="m266.667 145.333c-2.209 0-4-1.791-4-4v-25.333h8v25.333c0 2.209-1.791 4-4 4z" fill="#afd763"/></g></g><g><g><path d="m204 220h-112c-4.418 0-8 3.582-8 8v56c0 4.418 3.582 8 8 8h112c4.418 0 8-3.582 8-8v-56c0-4.418-3.582-8-8-8z" fill="#f5871e"/></g><g><path d="m172 220h-80c-4.418 0-8 3.582-8 8v56c0 4.418 3.582 8 8 8h80c4.418 0 8-3.582 8-8v-56c0-4.418-3.582-8-8-8z" fill="#fabe19"/></g><g><path d="m148 228h-32c-4.418 0-8 3.582-8 8 0 4.418 3.582 8 8 8h32c4.418 0 8-3.582 8-8 0-4.418-3.582-8-8-8z" fill="#be5000"/></g></g><g><g><path d="m332 220h-112c-4.418 0-8 3.582-8 8v56c0 4.418 3.582 8 8 8h112c4.418 0 8-3.582 8-8v-56c0-4.418-3.582-8-8-8z" fill="#f5871e"/></g><g><path d="m300 220h-80c-4.418 0-8 3.582-8 8v56c0 4.418 3.582 8 8 8h80c4.418 0 8-3.582 8-8v-56c0-4.418-3.582-8-8-8z" fill="#fabe19"/></g><g><path d="m276 228h-32c-4.418 0-8 3.582-8 8 0 4.418 3.582 8 8 8h32c4.418 0 8-3.582 8-8 0-4.418-3.582-8-8-8z" fill="#be5000"/></g></g><g><g><path d="m126.667 357.206v-9.206h-21.333v9.206c0 4.215-2.212 8.121-5.826 10.29l-1.681 1.009c-3.614 2.169-5.826 6.075-5.826 10.29v41.205c0 4.418 3.582 8 8 8h32c4.418 0 8-3.582 8-8v-41.206c0-4.215-2.212-8.121-5.826-10.29l-1.681-1.009c-3.616-2.168-5.827-6.074-5.827-10.289z" fill="#9bd2f0"/></g><g><path d="m134.174 368.504-1.681-1.009c-3.614-2.169-5.826-6.075-5.826-10.29v-9.205h-10.667v80h16c4.418 0 8-3.582 8-8v-41.205c0-4.215-2.212-8.122-5.826-10.291z" fill="#50c3eb"/></g><g><path d="m127.333 337.333h-22.667c-1.105 0-2 .895-2 2v6.667c0 1.105.895 2 2 2h22.667c1.105 0 2-.895 2-2v-6.667c0-1.104-.895-2-2-2z" fill="#f04b37"/></g><g><path d="m114 337.333h-9.333c-1.105 0-2 .895-2 2v6.667c0 1.105.895 2 2 2h9.333c1.105 0 2-.895 2-2v-6.667c0-1.104-.895-2-2-2z" fill="#ff6955"/></g><g><path d="m92 380h48v26.667h-48z" fill="#69a041"/></g><g><path d="m92 380h24v26.667h-24z" fill="#91b945"/></g><g><path d="m100 380h8v26.667h-8z" fill="#afd763"/></g><g><path d="m100 406.667h8v21.333h-8z" fill="#d7e6e6"/></g><g><path d="m104 372c-2.209 0-4 1.791-4 4v4h8v-4c0-2.209-1.791-4-4-4z" fill="#d7e6e6"/></g></g><g><g><path d="m190.667 357.206v-9.206h-21.333v9.206c0 4.215-2.212 8.121-5.826 10.29l-1.681 1.009c-3.614 2.169-5.826 6.075-5.826 10.29v41.205c0 4.418 3.582 8 8 8h32c4.418 0 8-3.582 8-8v-41.206c0-4.215-2.212-8.121-5.826-10.29l-1.681-1.009c-3.616-2.168-5.827-6.074-5.827-10.289z" fill="#9bd2f0"/></g><g><path d="m198.174 368.504-1.681-1.009c-3.614-2.169-5.826-6.075-5.826-10.29v-9.205h-10.667v80h16c4.418 0 8-3.582 8-8v-41.205c0-4.215-2.212-8.122-5.826-10.291z" fill="#50c3eb"/></g><g><path d="m191.333 337.333h-22.667c-1.105 0-2 .895-2 2v6.667c0 1.105.895 2 2 2h22.667c1.105 0 2-.895 2-2v-6.667c0-1.104-.895-2-2-2z" fill="#f04b37"/></g><g><path d="m178 337.333h-9.333c-1.105 0-2 .895-2 2v6.667c0 1.105.895 2 2 2h9.333c1.105 0 2-.895 2-2v-6.667c0-1.104-.895-2-2-2z" fill="#ff6955"/></g><g><path d="m156 380h48v26.667h-48z" fill="#69a041"/></g><g><path d="m156 380h24v26.667h-24z" fill="#91b945"/></g><g><path d="m164 380h8v26.667h-8z" fill="#afd763"/></g><g><path d="m164 406.667h8v21.333h-8z" fill="#d7e6e6"/></g><g><path d="m168 372c-2.209 0-4 1.791-4 4v4h8v-4c0-2.209-1.791-4-4-4z" fill="#d7e6e6"/></g></g><g><g><path d="m254.667 357.206v-9.206h-21.333v9.206c0 4.215-2.212 8.121-5.826 10.29l-1.681 1.009c-3.614 2.169-5.826 6.075-5.826 10.29v41.205c0 4.418 3.582 8 8 8h32c4.418 0 8-3.582 8-8v-41.206c0-4.215-2.212-8.121-5.826-10.29l-1.681-1.009c-3.616-2.168-5.827-6.074-5.827-10.289z" fill="#9bd2f0"/></g><g><path d="m262.174 368.504-1.681-1.009c-3.614-2.169-5.826-6.075-5.826-10.29v-9.205h-10.667v80h16c4.418 0 8-3.582 8-8v-41.205c0-4.215-2.212-8.122-5.826-10.291z" fill="#50c3eb"/></g><g><path d="m255.333 337.333h-22.667c-1.105 0-2 .895-2 2v6.667c0 1.105.895 2 2 2h22.667c1.105 0 2-.895 2-2v-6.667c0-1.104-.895-2-2-2z" fill="#f04b37"/></g><g><path d="m242 337.333h-9.333c-1.105 0-2 .895-2 2v6.667c0 1.105.895 2 2 2h9.333c1.105 0 2-.895 2-2v-6.667c0-1.104-.895-2-2-2z" fill="#ff6955"/></g><g><path d="m220 380h48v26.667h-48z" fill="#69a041"/></g><g><path d="m220 380h24v26.667h-24z" fill="#91b945"/></g><g><path d="m228 380h8v26.667h-8z" fill="#afd763"/></g><g><path d="m228 406.667h8v21.333h-8z" fill="#d7e6e6"/></g><g><path d="m232 372c-2.209 0-4 1.791-4 4v4h8v-4c0-2.209-1.791-4-4-4z" fill="#d7e6e6"/></g></g><g><g><path d="m318.667 357.206v-9.206h-21.333v9.206c0 4.215-2.212 8.121-5.826 10.29l-1.681 1.009c-3.614 2.169-5.826 6.075-5.826 10.29v41.205c0 4.418 3.582 8 8 8h32c4.418 0 8-3.582 8-8v-41.206c0-4.215-2.212-8.121-5.826-10.29l-1.681-1.009c-3.616-2.168-5.827-6.074-5.827-10.289z" fill="#9bd2f0"/></g><g><path d="m326.174 368.504-1.681-1.009c-3.614-2.169-5.826-6.075-5.826-10.29v-9.205h-10.667v80h16c4.418 0 8-3.582 8-8v-41.205c0-4.215-2.212-8.122-5.826-10.291z" fill="#50c3eb"/></g><g><path d="m319.333 337.333h-22.667c-1.105 0-2 .895-2 2v6.667c0 1.105.895 2 2 2h22.667c1.105 0 2-.895 2-2v-6.667c0-1.104-.895-2-2-2z" fill="#f04b37"/></g><g><path d="m306 337.333h-9.333c-1.105 0-2 .895-2 2v6.667c0 1.105.895 2 2 2h9.333c1.105 0 2-.895 2-2v-6.667c0-1.104-.895-2-2-2z" fill="#ff6955"/></g><g><path d="m284 380h48v26.667h-48z" fill="#69a041"/></g><g><path d="m284 380h24v26.667h-24z" fill="#91b945"/></g><g><path d="m292 380h8v26.667h-8z" fill="#afd763"/></g><g><path d="m292 406.667h8v21.333h-8z" fill="#d7e6e6"/></g><g><path d="m296 372c-2.209 0-4 1.791-4 4v4h8v-4c0-2.209-1.791-4-4-4z" fill="#d7e6e6"/></g></g></g></svg>